<svg id="Layer_1" data-name="Layer 1" xmlns="http://www.w3.org/2000/svg" viewBox="0 0 444 444"><defs><style>.cls-1{fill:#0057ff;}.cls-2{fill:#fff;}</style></defs><rect class="cls-1" width="444" height="444" rx="99.75"/><path class="cls-2" d="M341.21,356.54c-15.53,5.36-44.8,12.46-74,12.46-40.51,0-69.72-10.14-90.13-29.74-20.35-19.28-31.48-48.14-31.35-80.71.26-73.76,54-115.7,126.6-115.7,28.63,0,50.66,5.43,61.63,10.65l-10.48,40.16c-12.29-5.29-27.21-9.41-51.58-9.41-41.8,0-73.57,23.49-73.57,71.72,0,45.79,28.89,72.6,69.94,72.6,11.34,0,20.51-1.31,24.52-3.13V278.85H258.49V239.74h82.72Z" transform="translate(-34 -34)"/></svg>