<svg id="Layer_1" data-name="Layer 1" xmlns="http://www.w3.org/2000/svg" viewBox="0 0 360.45 348.67"><defs><style>.cls-1{fill:#030303;}</style></defs><path class="cls-1" d="M435.66,209.75A114.6,114.6,0,0,0,413.12,141c-19.2-26.18-45.06-41.92-77.16-47.33a95.9,95.9,0,0,0-16.06-1.24q-63.52-.18-127.09-.05c-30.58.05-57.15,10.75-79.59,31.34C92.77,142.49,80.66,166,76.42,193.64a77.19,77.19,0,0,0-.88,11.06c-.17,18.52-.46,37.05,0,55.54.56,21.11,7.14,40.58,18.79,58.18,18.16,27.46,43.5,44.57,75.67,51.54,2.95.63,6,1,8.94,1.39,4,.51,2.59.22,3.1,8.21a339,339,0,0,1,0,44.62c-.68,10,.81,13.48,8.7,16.45a2.22,2.22,0,0,1,.44.37,15.33,15.33,0,0,0,8.17-2.24c4.58-2.93,8.57-6.68,12.84-10q32.18-25.11,64.14-50.45a27.84,27.84,0,0,1,17.4-6c7.66,0,15.31,0,23,0,26.78-.1,51.06-7.87,72.31-24.22,24.05-18.5,39.06-42.68,44.57-72.46a126.41,126.41,0,0,0,1.95-20.54C435.86,240,435.74,224.86,435.66,209.75Zm-161,59.93a15.89,15.89,0,0,1-11.21,4.63H192.76a15.85,15.85,0,1,1,0-31.69h70.68a15.86,15.86,0,0,1,11.21,27.06Zm60.92-58.49a15.85,15.85,0,0,1-11.21,4.63H192.76a15.85,15.85,0,1,1,0-31.69h131.6a15.85,15.85,0,0,1,11.21,27.06Z" transform="translate(-75.3 -92.33)"/></svg>