<svg id="Layer_4" data-name="Layer 4" xmlns="http://www.w3.org/2000/svg" viewBox="0 0 321.85 394"><defs><style>.cls-1{fill:#030303;}.cls-2{fill:#fff;}</style></defs><path class="cls-1" d="M346.66,264.2l50,49a48.19,48.19,0,0,1-4.48,72.74c-30.26,23.06-76.78,47.92-137.72,49-64.76,1.18-114.37-25-146.14-49.15a48.2,48.2,0,0,1-4.65-72.73L177.6,240.3Z" transform="translate(-89.27 -41)"/><ellipse class="cls-1" cx="163.47" cy="134.41" rx="119.29" ry="124.41"/><path class="cls-2" d="M252.74,61C313.09,61,362,112.22,362,175.41S313.09,289.82,252.74,289.82,143.45,238.59,143.45,175.41,192.38,61,252.74,61m0-20C218,41,185.45,55.1,161,80.69a138.23,138.23,0,0,0,0,189.43c24.45,25.6,57,39.7,91.74,39.7s67.29-14.1,91.74-39.7c24.21-25.35,37.54-59,37.54-94.71S368.69,106,344.48,80.69C320,55.1,287.45,41,252.74,41Z" transform="translate(-89.27 -41)"/></svg>